<mxfile host="65bd71144e">
    <diagram id="ev3owe627GurFAV4sMfl" name="App-Layers">
        <mxGraphModel dx="644" dy="375" grid="1" gridSize="10" guides="1" tooltips="1" connect="1" arrows="1" fold="1" page="1" pageScale="1" pageWidth="827" pageHeight="1169" math="0" shadow="0">
            <root>
                <mxCell id="0"/>
                <mxCell id="1" parent="0"/>
                <mxCell id="2" value="Afina API&lt;br&gt;REST API&lt;br&gt;.net core" style="rounded=0;whiteSpace=wrap;html=1;" parent="1" vertex="1">
                    <mxGeometry x="70" y="100" width="140" height="70" as="geometry"/>
                </mxCell>
                <mxCell id="7" style="edgeStyle=none;html=1;exitX=0;exitY=0.5;exitDx=0;exitDy=0;entryX=1;entryY=0.25;entryDx=0;entryDy=0;" parent="1" source="3" target="2" edge="1">
                    <mxGeometry relative="1" as="geometry"/>
                </mxCell>
                <mxCell id="3" value="(Responsive) Web&lt;br&gt;React" style="rounded=0;whiteSpace=wrap;html=1;" parent="1" vertex="1">
                    <mxGeometry x="350" y="40" width="150" height="60" as="geometry"/>
                </mxCell>
                <mxCell id="8" style="edgeStyle=none;html=1;entryX=1;entryY=0.5;entryDx=0;entryDy=0;" parent="1" source="4" target="2" edge="1">
                    <mxGeometry relative="1" as="geometry"/>
                </mxCell>
                <mxCell id="4" value="Mobile App&lt;br&gt;Android&lt;br&gt;Scala" style="rounded=0;whiteSpace=wrap;html=1;" parent="1" vertex="1">
                    <mxGeometry x="460" y="150" width="120" height="60" as="geometry"/>
                </mxCell>
                <mxCell id="9" style="edgeStyle=none;html=1;entryX=1;entryY=0.75;entryDx=0;entryDy=0;" parent="1" source="5" target="2" edge="1">
                    <mxGeometry relative="1" as="geometry"/>
                </mxCell>
                <mxCell id="5" value="Mobile App&lt;br&gt;IOS&lt;br&gt;Swift" style="rounded=0;whiteSpace=wrap;html=1;" parent="1" vertex="1">
                    <mxGeometry x="460" y="240" width="120" height="60" as="geometry"/>
                </mxCell>
            </root>
        </mxGraphModel>
    </diagram>
    <diagram id="wWXKJvzWHZNbtIPaVgkP" name="API Server">
        <mxGraphModel dx="644" dy="378" grid="1" gridSize="10" guides="1" tooltips="1" connect="1" arrows="1" fold="1" page="1" pageScale="1" pageWidth="827" pageHeight="1169" math="0" shadow="0">
            <root>
                <mxCell id="0"/>
                <mxCell id="1" parent="0"/>
                <mxCell id="CE92mJ00KAtYb1fmSepu-1" value="User" style="rounded=0;whiteSpace=wrap;html=1;align=center;verticalAlign=top;" parent="1" vertex="1">
                    <mxGeometry x="180" y="110" width="330" height="120" as="geometry"/>
                </mxCell>
                <mxCell id="CE92mJ00KAtYb1fmSepu-2" value="Users" style="shape=cylinder3;whiteSpace=wrap;html=1;boundedLbl=1;backgroundOutline=1;size=15;" parent="1" vertex="1">
                    <mxGeometry x="230" y="140" width="70" height="70" as="geometry"/>
                </mxCell>
                <mxCell id="CE92mJ00KAtYb1fmSepu-3" value="Encryption Keys" style="shape=cylinder3;whiteSpace=wrap;html=1;boundedLbl=1;backgroundOutline=1;size=15;" parent="1" vertex="1">
                    <mxGeometry x="320" y="140" width="70" height="70" as="geometry"/>
                </mxCell>
                <mxCell id="CE92mJ00KAtYb1fmSepu-4" value="User Repository" style="whiteSpace=wrap;html=1;aspect=fixed;" parent="1" vertex="1">
                    <mxGeometry x="410" y="130" width="80" height="80" as="geometry"/>
                </mxCell>
                <mxCell id="CE92mJ00KAtYb1fmSepu-5" value="PrivateContent" style="rounded=0;whiteSpace=wrap;html=1;verticalAlign=top;" parent="1" vertex="1">
                    <mxGeometry x="180" y="280" width="330" height="120" as="geometry"/>
                </mxCell>
                <mxCell id="CE92mJ00KAtYb1fmSepu-6" value="Private Contents" style="shape=cylinder3;whiteSpace=wrap;html=1;boundedLbl=1;backgroundOutline=1;size=15;" parent="1" vertex="1">
                    <mxGeometry x="230" y="315" width="70" height="70" as="geometry"/>
                </mxCell>
                <mxCell id="CE92mJ00KAtYb1fmSepu-7" value="PrivateContent Repository" style="whiteSpace=wrap;html=1;aspect=fixed;" parent="1" vertex="1">
                    <mxGeometry x="410" y="310" width="80" height="80" as="geometry"/>
                </mxCell>
                <mxCell id="CE92mJ00KAtYb1fmSepu-9" value="Controller" style="rounded=0;whiteSpace=wrap;html=1;verticalAlign=top;" parent="1" vertex="1">
                    <mxGeometry x="630" y="150" width="170" height="230" as="geometry"/>
                </mxCell>
                <mxCell id="CE92mJ00KAtYb1fmSepu-11" style="edgeStyle=none;html=1;entryX=1;entryY=0.5;entryDx=0;entryDy=0;" parent="1" source="CE92mJ00KAtYb1fmSepu-10" target="CE92mJ00KAtYb1fmSepu-4" edge="1">
                    <mxGeometry relative="1" as="geometry"/>
                </mxCell>
                <mxCell id="CE92mJ00KAtYb1fmSepu-12" style="edgeStyle=none;html=1;entryX=1;entryY=0.5;entryDx=0;entryDy=0;" parent="1" source="CE92mJ00KAtYb1fmSepu-10" target="CE92mJ00KAtYb1fmSepu-7" edge="1">
                    <mxGeometry relative="1" as="geometry"/>
                </mxCell>
                <mxCell id="CE92mJ00KAtYb1fmSepu-10" value="Public APIs" style="rounded=0;whiteSpace=wrap;html=1;" parent="1" vertex="1">
                    <mxGeometry x="675" y="220" width="90" height="110" as="geometry"/>
                </mxCell>
                <mxCell id="CE92mJ00KAtYb1fmSepu-14" style="edgeStyle=none;html=1;entryX=1;entryY=0.5;entryDx=0;entryDy=0;" parent="1" source="CE92mJ00KAtYb1fmSepu-13" target="CE92mJ00KAtYb1fmSepu-10" edge="1">
                    <mxGeometry relative="1" as="geometry"/>
                </mxCell>
                <mxCell id="CE92mJ00KAtYb1fmSepu-13" value="Client&lt;br&gt;Web&lt;br&gt;Mobile Apps" style="rounded=0;whiteSpace=wrap;html=1;" parent="1" vertex="1">
                    <mxGeometry x="960" y="245" width="120" height="60" as="geometry"/>
                </mxCell>
            </root>
        </mxGraphModel>
    </diagram>
</mxfile>